<svg width="470" height="224" viewBox="0 0 470 224" fill="none" xmlns="http://www.w3.org/2000/svg">
<rect x="0.5" width="469" height="76" rx="12" fill="#F8F8F8"/>
<rect x="16.5" y="16" width="44" height="44" rx="8" fill="#FEFCFD"/>
<rect x="32.5" y="42" width="2" height="2" rx="1" fill="black"/>
<rect x="31.1" y="40.6" width="4.8" height="4.8" rx="2.4" stroke="black" stroke-width="1.2"/>
<rect x="42.5" y="42" width="2" height="2" rx="1" fill="black"/>
<rect x="41.1" y="40.6" width="4.8" height="4.8" rx="2.4" stroke="black" stroke-width="1.2"/>
<rect x="31.0332" y="35.5435" width="3" height="3" rx="1.5" transform="rotate(15 31.0332 35.5435)" fill="black"/>
<path d="M32.6411 28.6199C32.861 28.0081 33.5131 27.667 34.141 27.8352L35.0936 28.0904C35.7215 28.2587 36.1157 28.8802 36.0001 29.52L34.2169 39.3949C34.0869 40.1146 33.3696 40.5695 32.6633 40.3802L30.1008 39.6936C29.3945 39.5043 29.0007 38.7517 29.248 38.0635L32.6411 28.6199Z" stroke="black" stroke-width="1.5"/>
<rect x="43.0684" y="36.3203" width="3" height="3" rx="1.5" transform="rotate(-15 43.0684 36.3203)" fill="black"/>
<path d="M40.9996 29.5203C40.8841 28.8805 41.2782 28.259 41.9062 28.0907L42.8587 27.8355C43.4867 27.6672 44.1388 28.0084 44.3586 28.6202L47.7518 38.0638C47.999 38.752 47.6053 39.5046 46.8989 39.6939L44.3365 40.3805C43.6301 40.5698 42.9128 40.1149 42.7829 39.3952L40.9996 29.5203Z" stroke="black" stroke-width="1.5"/>
<rect x="32.1" y="45.6" width="12.8" height="3.8" rx="1.4" stroke="black" stroke-width="1.2"/>
<path d="M81.666 31.2207V33.0137C81.666 35.1406 81.666 37.3291 81.0859 40.6777L79.0996 40.502C79.7148 37.3818 79.7148 35.0791 79.7148 33.0137V32.8027H70.5566V31.2207H81.666ZM69.0273 43.3848V41.7852H83.5117V43.3848H69.0273ZM97.8203 29.6738V45.582H95.8867V29.6738H97.8203ZM85.4453 32.6445V31.0625H92.9336V37.0215H87.4668V40.2207C89.9717 40.2031 92.125 40.0713 94.6035 39.6582L94.7793 41.2578C92.0811 41.7236 89.708 41.8291 86.8516 41.8203H85.4629V35.4746H90.9473V32.6445H85.4453ZM109.352 31.168V32.75H107.717V40.0098C108.429 39.957 109.123 39.8955 109.791 39.8164L109.896 41.2227C106.671 41.7764 102.979 41.8379 100.246 41.8379L100.053 40.2207C100.642 40.2119 101.283 40.2119 101.951 40.2031V32.75H100.51V31.168H109.352ZM103.867 40.168C104.518 40.1592 105.177 40.1328 105.836 40.1064V32.75H103.867V40.168ZM108.859 37.1094V35.5273H111.531V29.6738H113.465V45.5645H111.531V37.1094H108.859ZM115.803 41.3105C115.803 39.166 117.587 38.542 119.354 38.4277C120.021 38.375 121.384 38.3135 121.806 38.2959L121.797 37.5312C121.797 36.582 121.19 36.0371 120.074 36.0371C119.072 36.0371 118.457 36.4941 118.281 37.1797H116.119C116.277 35.5537 117.736 34.332 120.127 34.332C121.938 34.332 124.029 35.0791 124.029 37.6191V44H121.885V42.6816H121.814C121.393 43.4902 120.505 44.1934 119.002 44.1934C117.183 44.1934 115.803 43.2002 115.803 41.3105ZM117.965 41.293C117.965 42.1191 118.642 42.541 119.582 42.541C120.944 42.541 121.814 41.6445 121.814 40.5723L121.806 39.79C121.401 39.8076 120.153 39.8867 119.705 39.9219C118.642 40.0098 117.965 40.458 117.965 41.293ZM136.193 37.7773V39.623H130.463V37.7773H136.193ZM143.541 31.2734V44H141.238V33.5059H141.168L138.197 35.4043V33.3125L141.344 31.2734H143.541Z" fill="black"/>
<rect width="18" height="18" transform="translate(231.5 29)" fill="white" style="mix-blend-mode:multiply"/>
<rect x="236" y="33.5" width="9" height="9" fill="white"/>
<g clip-path="url(#clip0_211_7820)">
<rect width="18" height="18" transform="translate(231.5 29)" fill="white" style="mix-blend-mode:multiply"/>
<rect width="18" height="18" transform="translate(231.5 29)" fill="white" style="mix-blend-mode:multiply"/>
<rect x="236" y="33.5" width="9" height="9" fill="white"/>
<rect width="18" height="18" transform="translate(231.5 29)" fill="white" style="mix-blend-mode:multiply"/>
<path d="M240.5 30.125C238.942 30.125 237.42 30.5869 236.125 31.4522C234.83 32.3175 233.82 33.5474 233.224 34.9864C232.628 36.4253 232.472 38.0087 232.776 39.5363C233.08 41.0639 233.83 42.4671 234.932 43.5685C236.033 44.6698 237.436 45.4198 238.964 45.7237C240.491 46.0275 242.075 45.8716 243.514 45.2756C244.953 44.6795 246.183 43.6702 247.048 42.3751C247.913 41.0801 248.375 39.5575 248.375 38C248.375 35.9114 247.545 33.9084 246.068 32.4315C244.592 30.9547 242.589 30.125 240.5 30.125ZM239.375 41.1448L236.563 38.3323L237.457 37.4375L239.375 39.3552L243.543 35.1875L244.441 36.0796L239.375 41.1448Z" fill="#B1B1B1"/>
</g>
<rect x="253.5" y="46" width="25" height="1" fill="#B1B1B1"/>
<rect width="18" height="18" transform="translate(294.5 29)" fill="white" style="mix-blend-mode:multiply"/>
<rect x="299" y="33.5" width="9" height="9" fill="white"/>
<rect width="18" height="18" transform="translate(294.5 29)" fill="white" style="mix-blend-mode:multiply"/>
<path d="M303.5 30.125C301.942 30.125 300.42 30.5869 299.125 31.4522C297.83 32.3175 296.82 33.5474 296.224 34.9864C295.628 36.4253 295.472 38.0087 295.776 39.5363C296.08 41.0639 296.83 42.4671 297.932 43.5685C299.033 44.6698 300.436 45.4198 301.964 45.7237C303.491 46.0275 305.075 45.8716 306.514 45.2756C307.953 44.6795 309.183 43.6702 310.048 42.3751C310.913 41.0801 311.375 39.5575 311.375 38C311.375 35.9114 310.545 33.9084 309.068 32.4315C307.592 30.9547 305.589 30.125 303.5 30.125ZM302.375 41.1448L299.563 38.3323L300.457 37.4375L302.375 39.3552L306.543 35.1875L307.441 36.0796L302.375 41.1448Z" fill="#B1B1B1"/>
<rect x="316.5" y="46" width="25" height="1" fill="#B1B1B1"/>
<rect x="357.5" y="16" width="96" height="44" rx="8" fill="black"/>
<path d="M393.072 33.2793V34.4824H389.9V36.6016H392.552V37.7773H389.9V40.1768C391.37 40.1562 392.382 40.0879 393.592 39.8828L393.728 41.0996C392.306 41.3799 391.124 41.4004 389.258 41.4004H388.451V33.2793H393.072ZM393.154 37.6543V36.4238H394.685V32.1035H396.107V43.6152H394.685V37.6543H393.154ZM397.228 44.2168V31.8574H398.705V44.2168H397.228ZM406.245 33.5527C406.245 35.46 408.111 37.3809 410.702 37.832L410.019 39.1035C407.947 38.6729 406.252 37.415 405.445 35.7539C404.632 37.4014 402.937 38.666 400.872 39.1035L400.202 37.832C402.752 37.3672 404.625 35.4531 404.632 33.5527V32.6367H406.245V33.5527ZM399.86 42.6445V41.3867H411.153V42.6445H399.86ZM421.729 38.3379V39.541H413.061V32.8281H421.619V34.0586H414.606V35.5488H421.332V36.7383H414.606V38.3379H421.729ZM411.68 42.7129V41.4688H422.973V42.7129H411.68Z" fill="white"/>
<g clip-path="url(#clip1_211_7820)">
<circle cx="235" cy="112" r="11" stroke="#151515" stroke-width="2"/>
<path d="M236 107.2C236 106.648 235.552 106.2 235 106.2C234.448 106.2 234 106.648 234 107.2H236ZM234 107.2V116.8H236V107.2H234Z" fill="#151515"/>
<path d="M239.799 112L234.999 116.8L230.199 112" stroke="#151515" stroke-width="2" stroke-linecap="round" stroke-linejoin="round"/>
</g>
<rect x="0.5" y="148" width="469" height="76" rx="12" fill="#F8F8F8"/>
<rect x="16.5" y="164" width="44" height="44" rx="8" fill="#FEFCFD"/>
<rect x="32.5" y="190" width="2" height="2" rx="1" fill="black"/>
<rect x="31.1" y="188.6" width="4.8" height="4.8" rx="2.4" stroke="black" stroke-width="1.2"/>
<rect x="42.5" y="190" width="2" height="2" rx="1" fill="black"/>
<rect x="41.1" y="188.6" width="4.8" height="4.8" rx="2.4" stroke="black" stroke-width="1.2"/>
<rect x="31.0332" y="183.543" width="3" height="3" rx="1.5" transform="rotate(15 31.0332 183.543)" fill="black"/>
<path d="M32.6411 176.62C32.861 176.008 33.5131 175.667 34.141 175.835L35.0936 176.09C35.7215 176.259 36.1157 176.88 36.0001 177.52L34.2169 187.395C34.0869 188.115 33.3696 188.569 32.6633 188.38L30.1008 187.694C29.3945 187.504 29.0007 186.752 29.248 186.064L32.6411 176.62Z" stroke="black" stroke-width="1.5"/>
<rect x="43.0684" y="184.32" width="3" height="3" rx="1.5" transform="rotate(-15 43.0684 184.32)" fill="black"/>
<path d="M40.9996 177.52C40.8841 176.881 41.2782 176.259 41.9062 176.091L42.8587 175.835C43.4867 175.667 44.1388 176.008 44.3586 176.62L47.7518 186.064C47.999 186.752 47.6053 187.505 46.8989 187.694L44.3365 188.38C43.6301 188.57 42.9128 188.115 42.7829 187.395L40.9996 177.52Z" stroke="black" stroke-width="1.5"/>
<rect x="32.1" y="193.6" width="12.8" height="3.8" rx="1.4" stroke="black" stroke-width="1.2"/>
<path d="M81.666 179.221V181.014C81.666 183.141 81.666 185.329 81.0859 188.678L79.0996 188.502C79.7148 185.382 79.7148 183.079 79.7148 181.014V180.803H70.5566V179.221H81.666ZM69.0273 191.385V189.785H83.5117V191.385H69.0273ZM97.8203 177.674V193.582H95.8867V177.674H97.8203ZM85.4453 180.645V179.062H92.9336V185.021H87.4668V188.221C89.9717 188.203 92.125 188.071 94.6035 187.658L94.7793 189.258C92.0811 189.724 89.708 189.829 86.8516 189.82H85.4629V183.475H90.9473V180.645H85.4453ZM109.352 179.168V180.75H107.717V188.01C108.429 187.957 109.123 187.896 109.791 187.816L109.896 189.223C106.671 189.776 102.979 189.838 100.246 189.838L100.053 188.221C100.642 188.212 101.283 188.212 101.951 188.203V180.75H100.51V179.168H109.352ZM103.867 188.168C104.518 188.159 105.177 188.133 105.836 188.106V180.75H103.867V188.168ZM108.859 185.109V183.527H111.531V177.674H113.465V193.564H111.531V185.109H108.859ZM115.803 189.311C115.803 187.166 117.587 186.542 119.354 186.428C120.021 186.375 121.384 186.313 121.806 186.296L121.797 185.531C121.797 184.582 121.19 184.037 120.074 184.037C119.072 184.037 118.457 184.494 118.281 185.18H116.119C116.277 183.554 117.736 182.332 120.127 182.332C121.938 182.332 124.029 183.079 124.029 185.619V192H121.885V190.682H121.814C121.393 191.49 120.505 192.193 119.002 192.193C117.183 192.193 115.803 191.2 115.803 189.311ZM117.965 189.293C117.965 190.119 118.642 190.541 119.582 190.541C120.944 190.541 121.814 189.645 121.814 188.572L121.806 187.79C121.401 187.808 120.153 187.887 119.705 187.922C118.642 188.01 117.965 188.458 117.965 189.293ZM136.193 185.777V187.623H130.463V185.777H136.193ZM143.541 179.273V192H141.238V181.506H141.168L138.197 183.404V181.312L141.344 179.273H143.541Z" fill="black"/>
<rect width="18" height="18" transform="translate(231.5 177)" fill="white" style="mix-blend-mode:multiply"/>
<rect x="236" y="181.5" width="9" height="9" fill="white"/>
<rect width="18" height="18" transform="translate(231.5 177)" fill="white" style="mix-blend-mode:multiply"/>
<path d="M240.5 178.125C238.942 178.125 237.42 178.587 236.125 179.452C234.83 180.317 233.82 181.547 233.224 182.986C232.628 184.425 232.472 186.009 232.776 187.536C233.08 189.064 233.83 190.467 234.932 191.568C236.033 192.67 237.436 193.42 238.964 193.724C240.491 194.028 242.075 193.872 243.514 193.276C244.953 192.68 246.183 191.67 247.048 190.375C247.913 189.08 248.375 187.558 248.375 186C248.375 183.911 247.545 181.908 246.068 180.432C244.592 178.955 242.589 178.125 240.5 178.125ZM239.375 189.145L236.563 186.332L237.457 185.438L239.375 187.355L243.543 183.188L244.441 184.08L239.375 189.145Z" fill="#198038"/>
<path d="M264.164 179.912V187.199H262.865V184.096H260.582V183.029H262.865V179.912H264.164ZM253.951 186.092C255.852 185.429 257.021 183.774 257.014 182.086V181.812H254.361V180.76H260.965V181.812H258.34V182.072C258.333 183.624 259.44 185.135 261.293 185.764L260.623 186.789C259.249 186.317 258.237 185.333 257.704 184.123C257.171 185.49 256.098 186.591 254.635 187.131L253.951 186.092ZM255.92 189.852C255.913 188.396 257.485 187.548 260.062 187.541C262.626 187.548 264.198 188.396 264.205 189.852C264.198 191.308 262.626 192.155 260.062 192.162C257.485 192.155 255.913 191.308 255.92 189.852ZM257.205 189.852C257.198 190.679 258.265 191.15 260.062 191.137C261.847 191.15 262.913 190.679 262.92 189.852C262.913 189.018 261.847 188.546 260.062 188.553C258.265 188.546 257.198 189.018 257.205 189.852ZM270.275 181.867C270.269 183.474 271.403 184.971 273.229 185.572L272.531 186.598C271.191 186.126 270.187 185.169 269.653 183.959C269.12 185.333 268.081 186.413 266.652 186.939L265.955 185.9C267.869 185.224 268.977 183.59 268.99 181.758V180.555H270.275V181.867ZM267.609 189.865C267.609 188.43 269.175 187.589 271.725 187.596C274.24 187.589 275.785 188.43 275.785 189.865C275.785 191.314 274.24 192.142 271.725 192.135C269.175 192.142 267.609 191.314 267.609 189.865ZM268.908 189.865C268.901 190.672 269.954 191.109 271.725 191.123C273.481 191.109 274.521 190.672 274.514 189.865C274.521 189.086 273.481 188.621 271.725 188.621C269.954 188.621 268.901 189.086 268.908 189.865ZM274.377 187.309V179.912H275.676V182.988H277.453V184.082H275.676V187.309H274.377Z" fill="#282828"/>
<rect width="18" height="18" transform="translate(294.5 177)" fill="white" style="mix-blend-mode:multiply"/>
<path d="M303.5 178.125C299.169 178.125 295.625 181.669 295.625 186C295.625 190.331 299.169 193.875 303.5 193.875C307.831 193.875 311.375 190.331 311.375 186C311.375 181.669 307.831 178.125 303.5 178.125ZM302.881 181.5H304.119V187.688H302.881V181.5ZM303.5 191.062C303.05 191.062 302.656 190.669 302.656 190.219C302.656 189.769 303.05 189.375 303.5 189.375C303.95 189.375 304.344 189.769 304.344 190.219C304.344 190.669 303.95 191.062 303.5 191.062Z" fill="#DA1E28"/>
<path d="M322.529 180.65C325.147 180.657 327.055 181.949 327.055 183.904C327.055 185.736 325.455 186.96 323.172 187.145V189.551H328.162V190.631H316.951V189.551H321.887V187.145C319.617 186.96 318.011 185.736 318.018 183.904C318.011 181.949 319.925 180.657 322.529 180.65ZM319.275 183.904C319.275 185.278 320.643 186.133 322.529 186.146C324.43 186.133 325.79 185.278 325.797 183.904C325.79 182.578 324.43 181.703 322.529 181.717C320.643 181.703 319.275 182.578 319.275 183.904ZM340.248 187.186V188.211H337.432V192.162H336.119V188.211H333.166V192.162H331.867V188.211H329.037V187.186H340.248ZM330.363 181.416V180.35H338.922V183.631H331.703V184.984H339.182V186.037H330.404V182.66H337.596V181.416H330.363Z" fill="#282828"/>
<rect x="357.5" y="164" width="96" height="44" rx="8" fill="#D0D0D0"/>
<path d="M379.731 181.279V182.482H376.559V184.602H379.212V185.777H376.559V188.177C378.029 188.156 379.041 188.088 380.251 187.883L380.388 189.1C378.966 189.38 377.783 189.4 375.917 189.4H375.11V181.279H379.731ZM379.813 185.654V184.424H381.345V180.104H382.766V191.615H381.345V185.654H379.813ZM383.888 192.217V179.857H385.364V192.217H383.888ZM392.904 181.553C392.904 183.46 394.771 185.381 397.361 185.832L396.678 187.104C394.607 186.673 392.911 185.415 392.105 183.754C391.291 185.401 389.596 186.666 387.531 187.104L386.861 185.832C389.411 185.367 391.284 183.453 391.291 181.553V180.637H392.904V181.553ZM386.52 190.645V189.387H397.813V190.645H386.52ZM408.388 186.338V187.541H399.72V180.828H408.279V182.059H401.265V183.549H407.992V184.738H401.265V186.338H408.388ZM398.339 190.713V189.469H409.632V190.713H398.339ZM416.934 180.391C418.738 180.391 420.023 181.396 420.037 182.879C420.023 184.109 419.101 185.032 417.726 185.285V186.283C418.759 186.222 419.791 186.133 420.748 185.996L420.871 187.104C418.301 187.562 415.43 187.616 413.338 187.609L413.174 186.393C414.062 186.393 415.101 186.386 416.195 186.352V185.292C414.78 185.053 413.837 184.13 413.844 182.879C413.837 181.396 415.122 180.391 416.934 180.391ZM414.869 191.957V188.471H416.387V190.727H423.428V191.957H414.869ZM415.266 182.879C415.252 183.692 415.949 184.198 416.934 184.205C417.925 184.198 418.595 183.692 418.601 182.879C418.595 182.045 417.925 181.553 416.934 181.553C415.949 181.553 415.252 182.045 415.266 182.879ZM421.473 189.305V179.871H422.99V183.863H424.658V185.121H422.99V189.305H421.473ZM436.314 189.523V190.781H425.021V189.523H428.015V187.486H426.361V183.453H433.47V181.936H426.333V180.705H434.974V184.67H427.878V186.256H435.261V187.486H433.456V189.523H436.314ZM429.491 189.523H431.966V187.486H429.491V189.523Z" fill="white"/>
<defs>
<clipPath id="clip0_211_7820">
<rect width="18" height="18" fill="white" transform="translate(231.5 29)"/>
</clipPath>
<clipPath id="clip1_211_7820">
<rect width="24" height="24" fill="white" transform="translate(223 100)"/>
</clipPath>
</defs>
</svg>
