<svg width="129" height="24" viewBox="0 0 129 24" fill="none" xmlns="http://www.w3.org/2000/svg">
<path d="M58.0866 5.31V8.118H53.0106V10.35H56.7546V13.032H53.0106V18H49.4826V5.31H58.0866ZM63.1005 15.3H67.0425V18H59.5725V5.31H63.1005V15.3ZM71.9423 8.136V10.206H75.9923V12.888H71.9423V15.174H76.5323V18H68.4143V5.31H76.5323V8.136H71.9423ZM86.2136 18L83.7476 14.418L81.6416 18H77.6276L81.7496 11.502L77.4836 5.31H81.6416L84.0356 8.802L86.0876 5.31H90.1016L86.0336 11.7L90.3716 18H86.2136ZM101.454 18L98.9335 13.32H98.5555V18H95.0275V5.31H100.59C101.61 5.31 102.474 5.49 103.182 5.85C103.89 6.198 104.424 6.684 104.784 7.308C105.144 7.92 105.324 8.61 105.324 9.378C105.324 10.242 105.084 11.004 104.604 11.664C104.136 12.312 103.446 12.774 102.534 13.05L105.396 18H101.454ZM98.5555 10.908H100.302C100.782 10.908 101.142 10.794 101.382 10.566C101.622 10.338 101.742 10.008 101.742 9.576C101.742 9.168 101.616 8.85 101.364 8.622C101.124 8.382 100.77 8.262 100.302 8.262H98.5555V10.908ZM116.954 9.54C116.954 10.308 116.774 11.01 116.414 11.646C116.066 12.27 115.532 12.774 114.812 13.158C114.104 13.53 113.234 13.716 112.202 13.716H110.456V18H106.928V5.31H112.202C113.222 5.31 114.086 5.49 114.794 5.85C115.514 6.21 116.054 6.708 116.414 7.344C116.774 7.98 116.954 8.712 116.954 9.54ZM111.86 10.908C112.856 10.908 113.354 10.452 113.354 9.54C113.354 8.616 112.856 8.154 111.86 8.154H110.456V10.908H111.86ZM123.159 18.126C121.683 18.126 120.471 17.778 119.523 17.082C118.575 16.374 118.065 15.366 117.993 14.058H121.755C121.791 14.502 121.923 14.826 122.151 15.03C122.379 15.234 122.673 15.336 123.033 15.336C123.357 15.336 123.621 15.258 123.825 15.102C124.041 14.934 124.149 14.706 124.149 14.418C124.149 14.046 123.975 13.758 123.627 13.554C123.279 13.35 122.715 13.122 121.935 12.87C121.107 12.594 120.435 12.33 119.919 12.078C119.415 11.814 118.971 11.436 118.587 10.944C118.215 10.44 118.029 9.786 118.029 8.982C118.029 8.166 118.233 7.47 118.641 6.894C119.049 6.306 119.613 5.862 120.333 5.562C121.053 5.262 121.869 5.112 122.781 5.112C124.257 5.112 125.433 5.46 126.309 6.156C127.197 6.84 127.671 7.806 127.731 9.054H123.897C123.885 8.67 123.765 8.382 123.537 8.19C123.321 7.998 123.039 7.902 122.691 7.902C122.427 7.902 122.211 7.98 122.043 8.136C121.875 8.292 121.791 8.514 121.791 8.802C121.791 9.042 121.881 9.252 122.061 9.432C122.253 9.6 122.487 9.75 122.763 9.882C123.039 10.002 123.447 10.158 123.987 10.35C124.791 10.626 125.451 10.902 125.967 11.178C126.495 11.442 126.945 11.82 127.317 12.312C127.701 12.792 127.893 13.404 127.893 14.148C127.893 14.904 127.701 15.582 127.317 16.182C126.945 16.782 126.399 17.256 125.679 17.604C124.971 17.952 124.131 18.126 123.159 18.126Z" fill="#B50039"/>
<path d="M10 22C15.5238 22 20 17.5196 20 11.9987C20 6.47776 15.5238 2 10 2C4.47616 2 0 6.47483 0 11.9987C0 17.5225 4.47749 22 10 22Z" fill="#A50034"/>
<path d="M9.603 7.60938V16.3758H12.389V15.5955H10.3985V7.60938H9.603Z" fill="white"/>
<path d="M6.80798 10.0019C7.4712 10.0019 8.00849 9.46459 8.00849 8.80456C8.00849 8.14453 7.4712 7.60352 6.80798 7.60352C6.14476 7.60352 5.61093 8.14107 5.61093 8.80456C5.61093 9.46805 6.14982 10.0019 6.80798 10.0019Z" fill="white"/>
<path d="M10.3986 3.63219C10.2963 3.62793 10.0969 3.625 10.0008 3.625C5.38751 3.625 1.63235 7.38096 1.63235 11.9969C1.63235 14.2331 2.50059 16.333 4.07891 17.9135C5.66521 19.495 7.76857 20.3648 10.0008 20.3648C12.233 20.3648 14.3369 19.495 15.9229 17.9135C17.4999 16.333 18.3684 14.2328 18.3684 11.9969V11.6148L18.0348 11.6175H12.3952V12.3944H17.5742V12.507C17.3082 16.4544 14.0131 19.5839 10.0008 19.5839C7.97491 19.5839 6.07017 18.7953 4.63669 17.3626C3.20268 15.9296 2.41326 14.0233 2.41326 11.9972C2.41326 9.97102 3.20268 8.06388 4.63669 6.632C6.06991 5.19613 7.97491 4.40777 10.0008 4.40777C10.0924 4.40777 10.3075 4.40963 10.3986 4.41176V3.63219Z" fill="white"/>
<path d="M26.8127 5H23.8627V18H32.9245V15.4688H26.8127V5Z" fill="#666666"/>
<path d="M38.9605 13.0013H41.3233V15.208C40.8891 15.3755 40.0395 15.5429 39.231 15.5429C36.6172 15.5429 35.7458 14.2085 35.7458 11.4995C35.7458 8.79043 36.5745 7.39522 39.188 7.39522C40.6393 7.39522 41.4695 7.85387 42.1533 8.72855L43.9591 7.06318C42.8595 5.47946 40.93 5 39.1259 5C35.0611 5 32.9245 7.22907 32.9245 11.4787C32.9245 15.7283 34.853 18 39.1055 18C41.0539 18 42.962 17.5005 44 16.7712V10.6461H38.9605V13.0016V13.0013Z" fill="#666666"/>
</svg>
