<svg width="448" height="416" viewBox="0 0 448 416" fill="none" xmlns="http://www.w3.org/2000/svg">
<rect x="3" width="120" height="120" rx="16" fill="#F4F4F4"/>
<path d="M88.7198 96.8938V83.0833C88.7198 82.832 88.5632 82.6095 88.3242 82.5271L88.044 82.4282L70.5658 76.3511L68.1307 75.9679C67.9659 75.9432 67.8135 76.0709 67.8135 76.2398V97.0091L70.5658 97.4417C75.6791 98.2451 80.8912 98.2451 86.0045 97.4417L88.7156 96.8896L88.7198 96.8938Z" fill="white" stroke="black" stroke-miterlimit="10"/>
<path d="M88.6044 99.4604L85.9921 99.8724C80.8624 100.68 75.6379 100.68 70.5081 99.8724L67.8959 99.4604C67.8299 99.4481 67.7764 99.3904 67.7764 99.3245V97.0584C67.7764 96.9719 67.8547 96.906 67.9371 96.9225L70.504 97.3262C75.6337 98.1338 80.8582 98.1338 85.988 97.3262L88.5549 96.9225C88.6373 96.9101 88.7156 96.976 88.7156 97.0584V99.3245C88.7156 99.3945 88.6662 99.4522 88.5961 99.4604H88.6044Z" fill="#393939" stroke="black" stroke-miterlimit="10"/>
<path d="M92.4814 110.63L88.8432 111.203C82.0819 112.266 75.1928 112.266 68.4273 111.203L64.7891 110.63V107.351C64.7891 107.301 64.8303 107.268 64.8797 107.272L68.4273 107.833C75.1886 108.896 82.0777 108.896 88.8432 107.833L92.3537 107.281C92.4196 107.268 92.4814 107.322 92.4814 107.388V110.63Z" fill="white" stroke="black" stroke-miterlimit="10"/>
<path d="M68.168 75.9224V75.016C68.168 74.7894 68.3534 74.604 68.58 74.604H85.6256C85.9634 74.604 86.2972 74.6823 86.5938 74.8471C87.2366 75.2055 88.176 76.0543 88.176 77.9413V82.4363L69.8738 76.5446L68.168 75.9265V75.9224Z" fill="#B50039" stroke="#211815" stroke-miterlimit="10"/>
<path d="M64.8262 107.177L67.7804 99.4438C67.7804 99.4438 73.1327 100.457 78.2913 100.482C83.4498 100.507 88.7238 99.4438 88.7238 99.4438L92.4403 107.169C92.465 107.218 92.4403 107.272 92.3867 107.284C91.5091 107.486 84.8631 108.949 78.6415 108.632C78.6415 108.632 70.9613 108.665 64.8839 107.28C64.8386 107.268 64.8138 107.218 64.8303 107.177H64.8262Z" fill="white" stroke="black" stroke-miterlimit="10"/>
<path d="M39.5106 45.2241H35.5883L33.8867 57.5019L39.5106 58.1117V45.2241Z" fill="#B50039" stroke="#211815" stroke-miterlimit="10"/>
<path d="M42.3252 77.4265C42.3252 77.4265 43.825 73.7679 49.478 72.0333C55.131 70.2988 60.1083 73.5165 60.1083 73.5165L61.7482 76.7755L42.3252 77.4265Z" fill="white" stroke="black" stroke-miterlimit="10"/>
<path d="M57.6574 96.3579H44.7362L42.8203 77.3355L57.6574 76.9111V96.3579Z" fill="#B50039" stroke="#211815" stroke-miterlimit="10"/>
<path d="M51.308 57.7204C51.308 57.7204 55.2923 58.3961 59.1695 55.9899C63.0467 53.5838 64.7854 51.2807 64.7854 51.2807C64.7854 51.2807 60.1419 52.1912 56.9239 50.057C53.706 47.9228 54.015 44.4743 54.015 43.0776L51.1432 46.2954L48.8564 52.0635L51.308 57.7204Z" fill="white" stroke="black" stroke-miterlimit="10"/>
<path d="M39.6065 45.0552L51.7654 45.4054C51.7654 45.4054 54.5177 51.1941 51.308 57.7203H36.335C36.335 57.7203 36.4091 50.7532 39.6065 45.0552Z" fill="white" stroke="black" stroke-miterlimit="10"/>
<path d="M69.2598 96.3581H51.1841C51.1841 96.3581 58.5429 89.3869 46.2109 77.2904L69.0537 76.7754C69.0537 76.7754 71.3529 79.9066 71.3529 86.886C71.3529 86.886 71.4394 93.9932 69.2639 96.3581H69.2598Z" fill="white" stroke="black" stroke-miterlimit="10"/>
<path d="M43.2111 75.997C43.2111 75.997 45.5432 72.5279 50.4628 71.6462C54.3441 70.9499 56.3712 71.7286 57.0511 72.0912C57.1376 72.1365 57.2324 72.0459 57.1953 71.9552L48.8888 51.9729C48.8682 51.9234 48.827 51.8822 48.7776 51.8616C43.0463 49.402 38.411 51.1818 36.4497 56.2742C36.3755 56.4679 36.3755 56.6821 36.4456 56.8758L43.2111 75.997Z" fill="white" stroke="black" stroke-miterlimit="10"/>
<path d="M74.9861 82.1233C72.8189 79.2022 69.6341 77.068 69.1891 76.7878C69.1562 76.7672 69.1191 76.7549 69.0779 76.7549L66.9561 76.8167" stroke="black" stroke-miterlimit="10"/>
<path d="M67.665 96.3583H69.5109C69.5727 96.3583 69.6304 96.3459 69.6881 96.3253C70.4215 96.0205 75.7902 93.7297 78.6415 91.2041" stroke="black" stroke-miterlimit="10"/>
<path d="M60.2607 30.4536L61.5957 26.9062L72.6463 28.682L70.9899 32.7197H63.421L60.2607 30.4536Z" fill="#393939" stroke="black" stroke-miterlimit="10"/>
<path d="M53.9323 43.374L51.8145 45.5123C51.8145 45.5123 54.369 50.3534 58.2668 51.3422C62.1646 52.3311 64.2165 51.9479 64.9417 51.1321L65.8234 49.5129C65.8234 49.5129 62.6549 50.3946 58.9013 49.4923C55.1478 48.59 54.2711 44.05 54.2711 44.05L53.9323 43.374Z" fill="#393939" stroke="black" stroke-miterlimit="10"/>
<path d="M66.4878 48.3373C67.2372 46.2975 64.984 43.5932 61.4553 42.2971C57.9266 41.0009 54.4586 41.6038 53.7093 43.6435C52.96 45.6833 55.2131 48.3876 58.7418 49.6838C62.2705 50.9799 65.7385 50.3771 66.4878 48.3373Z" fill="white" stroke="black" stroke-miterlimit="10"/>
<path d="M55.5098 43.0172L61.0682 28.3027C61.0682 28.3027 62.5227 31.3845 65.7818 32.085C69.0409 32.7854 71.4843 31.5617 71.4843 31.5617L65.1432 46.4516C65.1432 46.4516 62.9924 49.1091 59.0946 47.3045C55.1968 45.4999 55.4894 43.135 55.4894 43.135L55.5098 43.0172Z" fill="white" stroke="black" stroke-miterlimit="10"/>
<path d="M50.8337 15.2754L45.2098 19.4243C45.2098 19.4243 43.5411 21.7521 44.6659 24.5043C45.7907 27.2566 47.1091 27.3348 47.1091 27.3348L52.0738 22.3702L50.8337 15.2754Z" fill="#393939" stroke="black" stroke-miterlimit="10"/>
<path d="M71.4854 18.3364H75.111C75.111 18.3364 76.8579 19.5395 76.5448 24.7349C76.2317 29.9303 73.9327 28.9209 73.9327 28.9209L71.4854 18.3364Z" fill="#B50039" stroke="#211815" stroke-miterlimit="10"/>
<path d="M63.4755 17.4712L71.4853 17.8338L73.9863 29.1681L59.417 28.3029L63.4755 17.4712Z" fill="white" stroke="black" stroke-miterlimit="10"/>
<path d="M61.5149 21.8431L56.7619 18.0103L52.009 14.1775L54.3087 11.3259C58.5952 11.6939 62.5484 14.8816 63.8135 18.9955L61.5138 21.8471L61.5149 21.8431Z" fill="#B50039" stroke="#211815" stroke-miterlimit="10"/>
<path d="M52.3507 13.1259L41.4017 27.1002C41.2842 27.2521 41.3694 27.4754 41.5568 27.5086C42.7665 27.7218 46.2759 28.4745 48.3747 30.3207C50.3052 32.0152 51.1694 33.9956 51.4794 34.8763C51.5471 35.0694 51.8003 35.1116 51.9249 34.9488L62.3403 21.5652C62.3985 21.4912 62.3764 21.3829 62.2941 21.3395L60.2057 20.187C57.9122 18.9241 55.8859 17.221 54.2452 15.1776L52.5917 13.1179C52.5311 13.042 52.4111 13.0439 52.3518 13.1219L52.3507 13.1259Z" fill="white" stroke="black" stroke-miterlimit="10"/>
<path d="M45.7969 21.4876L44.5834 23.0392C44.5834 23.0392 47.9603 23.6497 50.7029 25.5448C53.4456 27.4399 55.3329 30.5688 55.3329 30.5688L56.4586 29.1216C56.4586 29.1216 54.4628 26.1428 51.4092 24.1985C48.3556 22.2542 45.7979 21.4836 45.7979 21.4836L45.7969 21.4876Z" fill="#393939" stroke="black" stroke-miterlimit="10"/>
<path d="M51.77 35.0781C51.2062 35.7972 48.3317 34.9673 45.4799 32.7316C42.6281 30.4958 40.8791 27.694 41.4469 26.976C42.0147 26.258 44.8756 27.0587 47.7264 29.2984C50.5772 31.5381 52.3377 34.3601 51.77 35.0781Z" fill="#393939" stroke="black" stroke-miterlimit="10"/>
<path d="M50.3275 34.9389C49.7637 35.658 47.2374 35.1048 44.8414 33.2215C42.4443 31.3423 41.086 28.8499 41.6509 28.1268C42.2157 27.4038 44.6166 28.3456 47.0126 30.2289C49.4086 32.1121 50.8924 34.2159 50.3275 34.9389Z" fill="#393939" stroke="black" stroke-miterlimit="10"/>
<path d="M33.7882 57.4935C33.162 57.4153 32.7376 54.7166 33.1867 51.3217C33.6358 47.9267 34.7935 45.1127 35.4198 45.1951C36.046 45.2775 36.1902 48.0915 35.7412 51.4906C35.2921 54.8896 34.4186 57.5759 33.7882 57.4977V57.4935Z" fill="#B50039" stroke="#211815" stroke-miterlimit="10"/>
<path d="M44.8839 96.3418C42.5848 96.6302 39.2968 92.9798 38.6787 87.7473C38.0607 82.519 40.3433 77.6902 42.6424 77.4018C44.9416 77.1134 47.3066 81.1223 47.9246 86.3506C48.5427 91.579 47.183 96.0534 44.8839 96.3377V96.3418Z" fill="#B50039" stroke="#211815" stroke-miterlimit="10"/>
<path d="M42.9394 94.5452C41.2996 94.6977 38.9883 91.4387 38.5845 86.9272C38.1848 82.4157 39.8494 78.3657 41.4891 78.2133C43.1289 78.0608 44.7811 81.5876 45.1807 86.0991C45.5804 90.6105 44.5792 94.3887 42.9394 94.5452Z" fill="#B50039" stroke="#211815" stroke-miterlimit="10"/>
<path d="M50.7604 45.9092C50.7604 45.9092 52.6428 51.6145 50.5498 55.9611L51.312 57.7204C51.312 57.7204 54.3444 52.6445 51.7693 45.4055L50.5498 45.3726L50.6652 45.5868L50.7604 45.9092Z" fill="#393939" stroke="black" stroke-miterlimit="10"/>
<path d="M44.2488 81.4285C44.8101 81.2815 45.2072 80.9411 45.1358 80.6682C45.0643 80.3952 44.5513 80.2931 43.99 80.44C43.4287 80.5869 43.0316 80.9273 43.103 81.2003C43.1745 81.4732 43.6875 81.5754 44.2488 81.4285Z" fill="#B50039" stroke="#211815" stroke-miterlimit="10"/>
<path d="M45.2764 87.75C45.8566 87.7476 46.3261 87.517 46.3249 87.2349C46.3238 86.9527 45.8525 86.7259 45.2723 86.7282C44.6921 86.7305 44.2226 86.9611 44.2237 87.2433C44.2249 87.5255 44.6962 87.7523 45.2764 87.75Z" fill="#B50039" stroke="#211815" stroke-miterlimit="10"/>
<path d="M45.0228 94.2046C45.1653 93.961 44.8748 93.5261 44.374 93.2331C43.8732 92.9401 43.3517 92.9 43.2092 93.1435C43.0667 93.387 43.3572 93.822 43.858 94.115C44.3588 94.408 44.8803 94.4481 45.0228 94.2046Z" fill="#B50039" stroke="#211815" stroke-miterlimit="10"/>
<path d="M42.0859 134.824C42.0723 137.094 43.2686 139.363 45.2715 140.225L44.3691 141.441C42.9473 140.785 41.9082 139.479 41.334 137.866C40.7666 139.603 39.7002 141.024 38.2031 141.729L37.2734 140.457C39.3311 139.568 40.5342 137.21 40.541 134.824V132.855H42.0859V134.824ZM46.1602 144.23V131.857H47.6914V144.23H46.1602ZM53.9395 134.004C53.9395 135.528 54.917 137.025 56.8652 137.668L56.0996 138.844C54.7119 138.379 53.7344 137.456 53.1943 136.301C52.6475 137.565 51.6221 138.57 50.1797 139.062L49.373 137.887C51.3623 137.224 52.4082 135.624 52.4082 134.004V133.854H49.7969V132.637H56.5098V133.854H53.9395V134.004ZM51.0273 141.1V139.883H59.2578V144.217H57.7402V141.1H51.0273ZM57.7402 139.309V131.857H59.2578V134.947H60.9805V136.219H59.2578V139.309H57.7402ZM68.9648 132.404C70.8447 132.397 72.2051 133.45 72.2051 135.002C72.2051 136.526 70.8447 137.593 68.9648 137.586C67.1055 137.593 65.752 136.526 65.752 135.002C65.752 133.45 67.1055 132.397 68.9648 132.404ZM64.9453 138.434C67.1738 138.434 70.2979 138.393 72.957 137.996L73.0664 139.117C72 139.322 70.8926 139.452 69.8125 139.534V143.834H68.2812V139.623C67.1396 139.671 66.0664 139.685 65.1367 139.691L64.9453 138.434ZM67.2285 135.002C67.2217 135.829 67.9531 136.349 68.9648 136.342C70.0176 136.349 70.7559 135.829 70.7559 135.002C70.7559 134.147 70.0176 133.621 68.9648 133.635C67.9531 133.621 67.2217 134.147 67.2285 135.002ZM73.7637 144.203V131.871H75.2676V144.203H73.7637ZM87.2988 131.857V144.217H85.7812V131.857H87.2988ZM77.1543 140.703C79.123 139.835 80.2578 137.757 80.2578 135.781V135.139H77.5371V133.922H80.2578V132.117H81.7617V133.922H84.4277V135.139H81.7754V135.781C81.7686 137.661 82.9238 139.678 84.9199 140.512L84.0859 141.674C82.6709 141.072 81.6045 139.842 81.0371 138.352C80.4834 139.931 79.417 141.25 77.9746 141.879L77.1543 140.703Z" fill="black"/>
<rect x="328" width="120" height="120" rx="16" fill="#F4F4F4"/>
<path d="M413.72 96.8938V83.0833C413.72 82.832 413.563 82.6095 413.324 82.5271L413.044 82.4282L395.566 76.3511L393.131 75.9679C392.966 75.9432 392.813 76.0709 392.813 76.2398V97.0091L395.566 97.4417C400.679 98.2451 405.891 98.2451 411.004 97.4417L413.716 96.8896L413.72 96.8938Z" fill="white" stroke="black" stroke-miterlimit="10"/>
<path d="M413.604 99.4604L410.992 99.8724C405.862 100.68 400.638 100.68 395.508 99.8724L392.896 99.4604C392.83 99.4481 392.776 99.3904 392.776 99.3245V97.0584C392.776 96.9719 392.855 96.906 392.937 96.9225L395.504 97.3262C400.634 98.1338 405.858 98.1338 410.988 97.3262L413.555 96.9225C413.637 96.9101 413.716 96.976 413.716 97.0584V99.3245C413.716 99.3945 413.666 99.4522 413.596 99.4604H413.604Z" fill="#393939" stroke="black" stroke-miterlimit="10"/>
<path d="M417.481 110.63L413.843 111.203C407.082 112.266 400.193 112.266 393.427 111.203L389.789 110.63V107.351C389.789 107.301 389.83 107.268 389.88 107.272L393.427 107.833C400.189 108.896 407.078 108.896 413.843 107.833L417.354 107.281C417.42 107.268 417.481 107.322 417.481 107.388V110.63Z" fill="white" stroke="black" stroke-miterlimit="10"/>
<path d="M393.168 75.9224V75.016C393.168 74.7894 393.353 74.604 393.58 74.604H410.626C410.963 74.604 411.297 74.6823 411.594 74.8471C412.237 75.2055 413.176 76.0543 413.176 77.9413V82.4363L394.874 76.5446L393.168 75.9265V75.9224Z" fill="#B50039" stroke="#211815" stroke-miterlimit="10"/>
<path d="M389.826 107.177L392.78 99.4438C392.78 99.4438 398.133 100.457 403.291 100.482C408.45 100.507 413.724 99.4438 413.724 99.4438L417.44 107.169C417.465 107.218 417.44 107.272 417.387 107.284C416.509 107.486 409.863 108.949 403.641 108.632C403.641 108.632 395.961 108.665 389.884 107.28C389.839 107.268 389.814 107.218 389.83 107.177H389.826Z" fill="white" stroke="black" stroke-miterlimit="10"/>
<path d="M364.511 45.2241H360.588L358.887 57.5019L364.511 58.1117V45.2241Z" fill="#B50039" stroke="#211815" stroke-miterlimit="10"/>
<path d="M367.325 77.4265C367.325 77.4265 368.825 73.7679 374.478 72.0333C380.131 70.2988 385.108 73.5165 385.108 73.5165L386.748 76.7755L367.325 77.4265Z" fill="white" stroke="black" stroke-miterlimit="10"/>
<path d="M382.657 96.3579H369.736L367.82 77.3355L382.657 76.9111V96.3579Z" fill="#B50039" stroke="#211815" stroke-miterlimit="10"/>
<path d="M376.308 57.7204C376.308 57.7204 380.292 58.3961 384.169 55.9899C388.047 53.5838 389.785 51.2807 389.785 51.2807C389.785 51.2807 385.142 52.1912 381.924 50.057C378.706 47.9228 379.015 44.4743 379.015 43.0776L376.143 46.2954L373.856 52.0635L376.308 57.7204Z" fill="white" stroke="black" stroke-miterlimit="10"/>
<path d="M364.606 45.0552L376.765 45.4054C376.765 45.4054 379.518 51.1941 376.308 57.7203H361.335C361.335 57.7203 361.409 50.7532 364.606 45.0552Z" fill="white" stroke="black" stroke-miterlimit="10"/>
<path d="M394.26 96.3581H376.184C376.184 96.3581 383.543 89.3869 371.211 77.2904L394.054 76.7754C394.054 76.7754 396.353 79.9066 396.353 86.886C396.353 86.886 396.439 93.9932 394.264 96.3581H394.26Z" fill="white" stroke="black" stroke-miterlimit="10"/>
<path d="M368.211 75.997C368.211 75.997 370.543 72.5279 375.463 71.6462C379.344 70.9499 381.371 71.7286 382.051 72.0912C382.138 72.1365 382.232 72.0459 382.195 71.9552L373.889 51.9729C373.868 51.9234 373.827 51.8822 373.778 51.8616C368.046 49.402 363.411 51.1818 361.45 56.2742C361.376 56.4679 361.376 56.6821 361.446 56.8758L368.211 75.997Z" fill="white" stroke="black" stroke-miterlimit="10"/>
<path d="M399.986 82.1233C397.819 79.2022 394.634 77.068 394.189 76.7878C394.156 76.7672 394.119 76.7549 394.078 76.7549L391.956 76.8167" stroke="black" stroke-miterlimit="10"/>
<path d="M392.665 96.3583H394.511C394.573 96.3583 394.63 96.3459 394.688 96.3253C395.422 96.0205 400.79 93.7297 403.641 91.2041" stroke="black" stroke-miterlimit="10"/>
<path d="M385.261 30.4536L386.596 26.9062L397.646 28.682L395.99 32.7197H388.421L385.261 30.4536Z" fill="#393939" stroke="black" stroke-miterlimit="10"/>
<path d="M378.932 43.374L376.814 45.5123C376.814 45.5123 379.369 50.3534 383.267 51.3422C387.165 52.3311 389.216 51.9479 389.942 51.1321L390.823 49.5129C390.823 49.5129 387.655 50.3946 383.901 49.4923C380.148 48.59 379.271 44.05 379.271 44.05L378.932 43.374Z" fill="#393939" stroke="black" stroke-miterlimit="10"/>
<path d="M391.488 48.3373C392.237 46.2975 389.984 43.5932 386.455 42.2971C382.927 41.0009 379.459 41.6038 378.709 43.6435C377.96 45.6833 380.213 48.3876 383.742 49.6838C387.27 50.9799 390.739 50.3771 391.488 48.3373Z" fill="white" stroke="black" stroke-miterlimit="10"/>
<path d="M380.51 43.0172L386.068 28.3027C386.068 28.3027 387.523 31.3845 390.782 32.085C394.041 32.7854 396.484 31.5617 396.484 31.5617L390.143 46.4516C390.143 46.4516 387.992 49.1091 384.095 47.3045C380.197 45.4999 380.489 43.135 380.489 43.135L380.51 43.0172Z" fill="white" stroke="black" stroke-miterlimit="10"/>
<path d="M375.834 15.2754L370.21 19.4243C370.21 19.4243 368.541 21.7521 369.666 24.5043C370.791 27.2566 372.109 27.3348 372.109 27.3348L377.074 22.3702L375.834 15.2754Z" fill="#393939" stroke="black" stroke-miterlimit="10"/>
<path d="M396.485 18.3364H400.111C400.111 18.3364 401.858 19.5395 401.545 24.7349C401.232 29.9303 398.933 28.9209 398.933 28.9209L396.485 18.3364Z" fill="#B50039" stroke="#211815" stroke-miterlimit="10"/>
<path d="M388.475 17.4712L396.485 17.8338L398.986 29.1681L384.417 28.3029L388.475 17.4712Z" fill="white" stroke="black" stroke-miterlimit="10"/>
<path d="M386.515 21.8431L381.762 18.0103L377.009 14.1775L379.309 11.3259C383.595 11.6939 387.548 14.8816 388.813 18.9955L386.514 21.8471L386.515 21.8431Z" fill="#B50039" stroke="#211815" stroke-miterlimit="10"/>
<path d="M377.351 13.1259L366.402 27.1002C366.284 27.2521 366.369 27.4754 366.557 27.5086C367.767 27.7218 371.276 28.4745 373.375 30.3207C375.305 32.0152 376.169 33.9956 376.479 34.8763C376.547 35.0694 376.8 35.1116 376.925 34.9488L387.34 21.5652C387.399 21.4912 387.376 21.3829 387.294 21.3395L385.206 20.187C382.912 18.9241 380.886 17.221 379.245 15.1776L377.592 13.1179C377.531 13.042 377.411 13.0439 377.352 13.1219L377.351 13.1259Z" fill="white" stroke="black" stroke-miterlimit="10"/>
<path d="M370.797 21.4876L369.583 23.0392C369.583 23.0392 372.96 23.6497 375.703 25.5448C378.446 27.4399 380.333 30.5688 380.333 30.5688L381.459 29.1216C381.459 29.1216 379.463 26.1428 376.409 24.1985C373.356 22.2542 370.798 21.4836 370.798 21.4836L370.797 21.4876Z" fill="#393939" stroke="black" stroke-miterlimit="10"/>
<path d="M376.77 35.0781C376.206 35.7972 373.332 34.9673 370.48 32.7316C367.628 30.4958 365.879 27.694 366.447 26.976C367.015 26.258 369.876 27.0587 372.726 29.2984C375.577 31.5381 377.338 34.3601 376.77 35.0781Z" fill="#393939" stroke="black" stroke-miterlimit="10"/>
<path d="M375.328 34.9389C374.764 35.658 372.237 35.1048 369.841 33.2215C367.444 31.3423 366.086 28.8499 366.651 28.1268C367.216 27.4038 369.617 28.3456 372.013 30.2289C374.409 32.1121 375.892 34.2159 375.328 34.9389Z" fill="#393939" stroke="black" stroke-miterlimit="10"/>
<path d="M358.788 57.4935C358.162 57.4153 357.738 54.7166 358.187 51.3217C358.636 47.9267 359.794 45.1127 360.42 45.1951C361.046 45.2775 361.19 48.0915 360.741 51.4906C360.292 54.8896 359.419 57.5759 358.788 57.4977V57.4935Z" fill="#B50039" stroke="#211815" stroke-miterlimit="10"/>
<path d="M369.884 96.3418C367.585 96.6302 364.297 92.9798 363.679 87.7473C363.061 82.519 365.343 77.6902 367.642 77.4018C369.942 77.1134 372.307 81.1223 372.925 86.3506C373.543 91.579 372.183 96.0534 369.884 96.3377V96.3418Z" fill="#B50039" stroke="#211815" stroke-miterlimit="10"/>
<path d="M367.939 94.5452C366.3 94.6977 363.988 91.4387 363.584 86.9272C363.185 82.4157 364.849 78.3657 366.489 78.2133C368.129 78.0608 369.781 81.5876 370.181 86.0991C370.58 90.6105 369.579 94.3887 367.939 94.5452Z" fill="#B50039" stroke="#211815" stroke-miterlimit="10"/>
<path d="M375.76 45.9092C375.76 45.9092 377.643 51.6145 375.55 55.9611L376.312 57.7204C376.312 57.7204 379.344 52.6445 376.769 45.4055L375.55 45.3726L375.665 45.5868L375.76 45.9092Z" fill="#393939" stroke="black" stroke-miterlimit="10"/>
<path d="M369.249 81.4285C369.81 81.2815 370.207 80.9411 370.136 80.6682C370.064 80.3952 369.551 80.2931 368.99 80.44C368.429 80.5869 368.032 80.9273 368.103 81.2003C368.174 81.4732 368.687 81.5754 369.249 81.4285Z" fill="#B50039" stroke="#211815" stroke-miterlimit="10"/>
<path d="M370.276 87.75C370.857 87.7476 371.326 87.517 371.325 87.2349C371.324 86.9527 370.853 86.7259 370.272 86.7282C369.692 86.7305 369.223 86.9611 369.224 87.2433C369.225 87.5255 369.696 87.7523 370.276 87.75Z" fill="#B50039" stroke="#211815" stroke-miterlimit="10"/>
<path d="M370.023 94.2046C370.165 93.961 369.875 93.5261 369.374 93.2331C368.873 92.9401 368.352 92.9 368.209 93.1435C368.067 93.387 368.357 93.822 368.858 94.115C369.359 94.408 369.88 94.4481 370.023 94.2046Z" fill="#B50039" stroke="#211815" stroke-miterlimit="10"/>
<path d="M374.916 143V133.102H378.635C380.904 133.102 382.114 134.482 382.121 136.383C382.114 138.276 380.891 139.65 378.607 139.65H376.693V143H374.916ZM376.693 138.188H378.361C379.701 138.181 380.303 137.429 380.303 136.383C380.303 135.323 379.701 134.592 378.361 134.592H376.693V138.188ZM383.475 143V135.576H385.225V143H383.475ZM383.352 133.566C383.352 133.047 383.81 132.623 384.363 132.623C384.917 132.623 385.375 133.047 385.375 133.566C385.375 134.093 384.917 134.517 384.363 134.523C383.81 134.517 383.352 134.093 383.352 133.566ZM390.133 143.15C387.918 143.15 386.578 141.564 386.578 139.322C386.578 137.046 387.959 135.48 390.133 135.48C391.931 135.48 393.195 136.533 393.318 138.133H391.65C391.514 137.422 390.994 136.882 390.146 136.875C389.066 136.882 388.342 137.784 388.342 139.281C388.342 140.812 389.053 141.722 390.146 141.729C390.919 141.722 391.493 141.271 391.65 140.471H393.318C393.188 142.036 391.999 143.15 390.133 143.15ZM394.631 143V133.102H396.381V138.557H396.504L399.17 135.576H401.207L398.329 138.775L401.385 143H399.307L397.023 139.814L396.381 140.498V143H394.631Z" fill="black"/>
<path d="M134 57C132.333 57 131 58.3333 131 60C131 61.6667 132.333 63 134 63C135.667 63 137 61.6667 137 60C137 58.3333 135.667 57 134 57Z" fill="white"/>
<path d="M137 60C137 58.3333 135.667 57 134 57C132.333 57 131 58.3333 131 60C131 61.6667 132.333 63 134 63C135.667 63 137 61.6667 137 60ZM137 60H320" stroke="#B50039" stroke-width="2"/>
<rect x="328" y="268" width="120" height="120" rx="16" fill="#F4F4F4"/>
<path d="M413.72 364.894V351.083C413.72 350.832 413.563 350.609 413.324 350.527L413.044 350.428L395.566 344.351L393.131 343.968C392.966 343.943 392.813 344.071 392.813 344.24V365.009L395.566 365.442C400.679 366.245 405.891 366.245 411.004 365.442L413.716 364.89L413.72 364.894Z" fill="white" stroke="black" stroke-miterlimit="10"/>
<path d="M413.604 367.46L410.992 367.872C405.862 368.68 400.638 368.68 395.508 367.872L392.896 367.46C392.83 367.448 392.776 367.39 392.776 367.324V365.058C392.776 364.972 392.855 364.906 392.937 364.922L395.504 365.326C400.634 366.134 405.858 366.134 410.988 365.326L413.555 364.922C413.637 364.91 413.716 364.976 413.716 365.058V367.324C413.716 367.395 413.666 367.452 413.596 367.46H413.604Z" fill="#393939" stroke="black" stroke-miterlimit="10"/>
<path d="M417.481 378.63L413.843 379.203C407.082 380.266 400.193 380.266 393.427 379.203L389.789 378.63V375.351C389.789 375.301 389.83 375.268 389.88 375.272L393.427 375.833C400.189 376.896 407.078 376.896 413.843 375.833L417.354 375.281C417.42 375.268 417.481 375.322 417.481 375.388V378.63Z" fill="white" stroke="black" stroke-miterlimit="10"/>
<path d="M393.168 343.922V343.016C393.168 342.789 393.353 342.604 393.58 342.604H410.626C410.963 342.604 411.297 342.682 411.594 342.847C412.237 343.206 413.176 344.054 413.176 345.941V350.436L394.874 344.545L393.168 343.927V343.922Z" fill="#B50039" stroke="#211815" stroke-miterlimit="10"/>
<path d="M389.826 375.177L392.78 367.444C392.78 367.444 398.133 368.457 403.291 368.482C408.45 368.507 413.724 367.444 413.724 367.444L417.44 375.169C417.465 375.218 417.44 375.272 417.387 375.284C416.509 375.486 409.863 376.949 403.641 376.632C403.641 376.632 395.961 376.665 389.884 375.28C389.839 375.268 389.814 375.218 389.83 375.177H389.826Z" fill="white" stroke="black" stroke-miterlimit="10"/>
<path d="M364.511 313.224H360.588L358.887 325.502L364.511 326.112V313.224Z" fill="#B50039" stroke="#211815" stroke-miterlimit="10"/>
<path d="M367.325 345.426C367.325 345.426 368.825 341.768 374.478 340.033C380.131 338.299 385.108 341.517 385.108 341.517L386.748 344.776L367.325 345.426Z" fill="white" stroke="black" stroke-miterlimit="10"/>
<path d="M382.657 364.358H369.736L367.82 345.335L382.657 344.911V364.358Z" fill="#B50039" stroke="#211815" stroke-miterlimit="10"/>
<path d="M376.308 325.72C376.308 325.72 380.292 326.396 384.169 323.99C388.047 321.584 389.785 319.281 389.785 319.281C389.785 319.281 385.142 320.191 381.924 318.057C378.706 315.923 379.015 312.474 379.015 311.078L376.143 314.295L373.856 320.064L376.308 325.72Z" fill="white" stroke="black" stroke-miterlimit="10"/>
<path d="M364.606 313.055L376.765 313.405C376.765 313.405 379.518 319.194 376.308 325.72H361.335C361.335 325.72 361.409 318.753 364.606 313.055Z" fill="white" stroke="black" stroke-miterlimit="10"/>
<path d="M394.26 364.358H376.184C376.184 364.358 383.543 357.387 371.211 345.29L394.054 344.775C394.054 344.775 396.353 347.907 396.353 354.886C396.353 354.886 396.439 361.993 394.264 364.358H394.26Z" fill="white" stroke="black" stroke-miterlimit="10"/>
<path d="M368.211 343.997C368.211 343.997 370.543 340.528 375.463 339.646C379.344 338.95 381.371 339.729 382.051 340.091C382.138 340.137 382.232 340.046 382.195 339.955L373.889 319.973C373.868 319.923 373.827 319.882 373.778 319.862C368.046 317.402 363.411 319.182 361.45 324.274C361.376 324.468 361.376 324.682 361.446 324.876L368.211 343.997Z" fill="white" stroke="black" stroke-miterlimit="10"/>
<path d="M399.986 350.123C397.819 347.202 394.634 345.068 394.189 344.788C394.156 344.767 394.119 344.755 394.078 344.755L391.956 344.817" stroke="black" stroke-miterlimit="10"/>
<path d="M392.665 364.358H394.511C394.573 364.358 394.63 364.346 394.688 364.325C395.422 364.02 400.79 361.73 403.641 359.204" stroke="black" stroke-miterlimit="10"/>
<path d="M385.261 298.454L386.596 294.906L397.646 296.682L395.99 300.72H388.421L385.261 298.454Z" fill="#393939" stroke="black" stroke-miterlimit="10"/>
<path d="M378.932 311.374L376.814 313.512C376.814 313.512 379.369 318.353 383.267 319.342C387.165 320.331 389.216 319.948 389.942 319.132L390.823 317.513C390.823 317.513 387.655 318.395 383.901 317.492C380.148 316.59 379.271 312.05 379.271 312.05L378.932 311.374Z" fill="#393939" stroke="black" stroke-miterlimit="10"/>
<path d="M391.488 316.337C392.237 314.298 389.984 311.593 386.455 310.297C382.927 309.001 379.459 309.604 378.709 311.644C377.96 313.683 380.213 316.388 383.742 317.684C387.27 318.98 390.739 318.377 391.488 316.337Z" fill="white" stroke="black" stroke-miterlimit="10"/>
<path d="M380.51 311.017L386.068 296.303C386.068 296.303 387.523 299.385 390.782 300.085C394.041 300.785 396.484 299.562 396.484 299.562L390.143 314.452C390.143 314.452 387.992 317.109 384.095 315.304C380.197 313.5 380.489 311.135 380.489 311.135L380.51 311.017Z" fill="white" stroke="black" stroke-miterlimit="10"/>
<path d="M375.834 283.275L370.21 287.424C370.21 287.424 368.541 289.752 369.666 292.504C370.791 295.257 372.109 295.335 372.109 295.335L377.074 290.37L375.834 283.275Z" fill="#393939" stroke="black" stroke-miterlimit="10"/>
<path d="M396.485 286.336H400.111C400.111 286.336 401.858 287.539 401.545 292.735C401.232 297.93 398.933 296.921 398.933 296.921L396.485 286.336Z" fill="#B50039" stroke="#211815" stroke-miterlimit="10"/>
<path d="M388.475 285.471L396.485 285.834L398.986 297.168L384.417 296.303L388.475 285.471Z" fill="white" stroke="black" stroke-miterlimit="10"/>
<path d="M386.515 289.843L381.762 286.01L377.009 282.178L379.309 279.326C383.595 279.694 387.548 282.882 388.813 286.995L386.514 289.847L386.515 289.843Z" fill="#B50039" stroke="#211815" stroke-miterlimit="10"/>
<path d="M377.351 281.126L366.402 295.1C366.284 295.252 366.369 295.475 366.557 295.509C367.767 295.722 371.276 296.474 373.375 298.321C375.305 300.015 376.169 301.996 376.479 302.876C376.547 303.069 376.8 303.112 376.925 302.949L387.34 289.565C387.399 289.491 387.376 289.383 387.294 289.34L385.206 288.187C382.912 286.924 380.886 285.221 379.245 283.178L377.592 281.118C377.531 281.042 377.411 281.044 377.352 281.122L377.351 281.126Z" fill="white" stroke="black" stroke-miterlimit="10"/>
<path d="M370.797 289.488L369.583 291.039C369.583 291.039 372.96 291.65 375.703 293.545C378.446 295.44 380.333 298.569 380.333 298.569L381.459 297.122C381.459 297.122 379.463 294.143 376.409 292.199C373.356 290.254 370.798 289.484 370.798 289.484L370.797 289.488Z" fill="#393939" stroke="black" stroke-miterlimit="10"/>
<path d="M376.77 303.078C376.206 303.797 373.332 302.967 370.48 300.732C367.628 298.496 365.879 295.694 366.447 294.976C367.015 294.258 369.876 295.059 372.726 297.298C375.577 299.538 377.338 302.36 376.77 303.078Z" fill="#393939" stroke="black" stroke-miterlimit="10"/>
<path d="M375.328 302.939C374.764 303.658 372.237 303.105 369.841 301.222C367.444 299.342 366.086 296.85 366.651 296.127C367.216 295.404 369.617 296.346 372.013 298.229C374.409 300.112 375.892 302.216 375.328 302.939Z" fill="#393939" stroke="black" stroke-miterlimit="10"/>
<path d="M358.788 325.494C358.162 325.415 357.738 322.717 358.187 319.322C358.636 315.927 359.794 313.113 360.42 313.195C361.046 313.278 361.19 316.092 360.741 319.491C360.292 322.89 359.419 325.576 358.788 325.498V325.494Z" fill="#B50039" stroke="#211815" stroke-miterlimit="10"/>
<path d="M369.884 364.342C367.585 364.63 364.297 360.98 363.679 355.747C363.061 350.519 365.343 345.69 367.642 345.402C369.942 345.113 372.307 349.122 372.925 354.351C373.543 359.579 372.183 364.053 369.884 364.338V364.342Z" fill="#B50039" stroke="#211815" stroke-miterlimit="10"/>
<path d="M367.939 362.545C366.3 362.698 363.988 359.439 363.584 354.927C363.185 350.416 364.849 346.366 366.489 346.213C368.129 346.061 369.781 349.588 370.181 354.099C370.58 358.611 369.579 362.389 367.939 362.545Z" fill="#B50039" stroke="#211815" stroke-miterlimit="10"/>
<path d="M375.76 313.909C375.76 313.909 377.643 319.614 375.55 323.961L376.312 325.72C376.312 325.72 379.344 320.644 376.769 313.406L375.55 313.373L375.665 313.587L375.76 313.909Z" fill="#393939" stroke="black" stroke-miterlimit="10"/>
<path d="M369.249 349.428C369.81 349.282 370.207 348.941 370.136 348.668C370.064 348.395 369.551 348.293 368.99 348.44C368.429 348.587 368.032 348.927 368.103 349.2C368.174 349.473 368.687 349.575 369.249 349.428Z" fill="#B50039" stroke="#211815" stroke-miterlimit="10"/>
<path d="M370.276 355.75C370.857 355.748 371.326 355.517 371.325 355.235C371.324 354.953 370.853 354.726 370.272 354.728C369.692 354.731 369.223 354.961 369.224 355.243C369.225 355.525 369.696 355.752 370.276 355.75Z" fill="#B50039" stroke="#211815" stroke-miterlimit="10"/>
<path d="M370.023 362.205C370.165 361.961 369.875 361.526 369.374 361.233C368.873 360.94 368.352 360.9 368.209 361.144C368.067 361.387 368.357 361.822 368.858 362.115C369.359 362.408 369.88 362.448 370.023 362.205Z" fill="#B50039" stroke="#211815" stroke-miterlimit="10"/>
<path d="M379.729 401.102L382.299 408.908H382.408L384.992 401.102H386.947L383.447 411H381.26L377.773 401.102H379.729ZM388.041 411V403.576H389.791V411H388.041ZM387.918 401.566C387.918 401.047 388.376 400.623 388.93 400.623C389.483 400.623 389.941 401.047 389.941 401.566C389.941 402.093 389.483 402.517 388.93 402.523C388.376 402.517 387.918 402.093 387.918 401.566ZM391.117 408.908C391.117 407.24 392.505 406.755 393.879 406.666C394.398 406.625 395.458 406.577 395.786 406.563L395.779 405.969C395.779 405.23 395.308 404.807 394.439 404.807C393.66 404.807 393.182 405.162 393.045 405.695H391.363C391.486 404.431 392.621 403.48 394.48 403.48C395.889 403.48 397.516 404.062 397.516 406.037V411H395.848V409.975H395.793C395.465 410.604 394.774 411.15 393.605 411.15C392.19 411.15 391.117 410.378 391.117 408.908ZM392.799 408.895C392.799 409.537 393.325 409.865 394.057 409.865C395.116 409.865 395.793 409.168 395.793 408.334L395.786 407.726C395.472 407.739 394.501 407.801 394.152 407.828C393.325 407.896 392.799 408.245 392.799 408.895Z" fill="black"/>
<rect y="267" width="120" height="120" rx="16" fill="#F4F4F4"/>
<path d="M85.7198 363.894V350.083C85.7198 349.832 85.5632 349.609 85.3242 349.527L85.044 349.428L67.5658 343.351L65.1307 342.968C64.9659 342.943 64.8135 343.071 64.8135 343.24V364.009L67.5658 364.442C72.6791 365.245 77.8912 365.245 83.0045 364.442L85.7156 363.89L85.7198 363.894Z" fill="white" stroke="black" stroke-miterlimit="10"/>
<path d="M85.6044 366.46L82.9921 366.872C77.8624 367.68 72.6379 367.68 67.5081 366.872L64.8959 366.46C64.8299 366.448 64.7764 366.39 64.7764 366.324V364.058C64.7764 363.972 64.8547 363.906 64.9371 363.922L67.504 364.326C72.6337 365.134 77.8582 365.134 82.988 364.326L85.5549 363.922C85.6373 363.91 85.7156 363.976 85.7156 364.058V366.324C85.7156 366.395 85.6662 366.452 85.5961 366.46H85.6044Z" fill="#393939" stroke="black" stroke-miterlimit="10"/>
<path d="M89.4814 377.63L85.8432 378.203C79.0819 379.266 72.1928 379.266 65.4273 378.203L61.7891 377.63V374.351C61.7891 374.301 61.8303 374.268 61.8797 374.272L65.4273 374.833C72.1886 375.896 79.0777 375.896 85.8432 374.833L89.3537 374.281C89.4196 374.268 89.4814 374.322 89.4814 374.388V377.63Z" fill="white" stroke="black" stroke-miterlimit="10"/>
<path d="M65.168 342.922V342.016C65.168 341.789 65.3534 341.604 65.58 341.604H82.6256C82.9634 341.604 83.2972 341.682 83.5938 341.847C84.2366 342.206 85.176 343.054 85.176 344.941V349.436L66.8738 343.545L65.168 342.927V342.922Z" fill="#B50039" stroke="#211815" stroke-miterlimit="10"/>
<path d="M61.8262 374.177L64.7804 366.444C64.7804 366.444 70.1327 367.457 75.2913 367.482C80.4498 367.507 85.7238 366.444 85.7238 366.444L89.4403 374.169C89.465 374.218 89.4403 374.272 89.3867 374.284C88.5091 374.486 81.8631 375.949 75.6415 375.632C75.6415 375.632 67.9613 375.665 61.8839 374.28C61.8386 374.268 61.8138 374.218 61.8303 374.177H61.8262Z" fill="white" stroke="black" stroke-miterlimit="10"/>
<path d="M36.5106 312.224H32.5883L30.8867 324.502L36.5106 325.112V312.224Z" fill="#B50039" stroke="#211815" stroke-miterlimit="10"/>
<path d="M39.3252 344.426C39.3252 344.426 40.825 340.768 46.478 339.033C52.131 337.299 57.1083 340.517 57.1083 340.517L58.7482 343.776L39.3252 344.426Z" fill="white" stroke="black" stroke-miterlimit="10"/>
<path d="M54.6574 363.358H41.7362L39.8203 344.335L54.6574 343.911V363.358Z" fill="#B50039" stroke="#211815" stroke-miterlimit="10"/>
<path d="M48.308 324.72C48.308 324.72 52.2923 325.396 56.1695 322.99C60.0467 320.584 61.7854 318.281 61.7854 318.281C61.7854 318.281 57.1419 319.191 53.9239 317.057C50.706 314.923 51.015 311.474 51.015 310.078L48.1432 313.295L45.8564 319.064L48.308 324.72Z" fill="white" stroke="black" stroke-miterlimit="10"/>
<path d="M36.6065 312.055L48.7654 312.405C48.7654 312.405 51.5177 318.194 48.308 324.72H33.335C33.335 324.72 33.4091 317.753 36.6065 312.055Z" fill="white" stroke="black" stroke-miterlimit="10"/>
<path d="M66.2598 363.358H48.1841C48.1841 363.358 55.5429 356.387 43.2109 344.29L66.0537 343.775C66.0537 343.775 68.3529 346.907 68.3529 353.886C68.3529 353.886 68.4394 360.993 66.2639 363.358H66.2598Z" fill="white" stroke="black" stroke-miterlimit="10"/>
<path d="M40.2111 342.997C40.2111 342.997 42.5432 339.528 47.4628 338.646C51.3441 337.95 53.3712 338.729 54.0511 339.091C54.1376 339.137 54.2324 339.046 54.1953 338.955L45.8888 318.973C45.8682 318.923 45.827 318.882 45.7776 318.862C40.0463 316.402 35.411 318.182 33.4497 323.274C33.3755 323.468 33.3755 323.682 33.4456 323.876L40.2111 342.997Z" fill="white" stroke="black" stroke-miterlimit="10"/>
<path d="M71.9861 349.123C69.8189 346.202 66.6341 344.068 66.1891 343.788C66.1562 343.767 66.1191 343.755 66.0779 343.755L63.9561 343.817" stroke="black" stroke-miterlimit="10"/>
<path d="M64.665 363.358H66.5109C66.5727 363.358 66.6304 363.346 66.6881 363.325C67.4215 363.02 72.7902 360.73 75.6415 358.204" stroke="black" stroke-miterlimit="10"/>
<path d="M57.2607 297.454L58.5957 293.906L69.6463 295.682L67.9899 299.72H60.421L57.2607 297.454Z" fill="#393939" stroke="black" stroke-miterlimit="10"/>
<path d="M50.9323 310.374L48.8145 312.512C48.8145 312.512 51.369 317.353 55.2668 318.342C59.1646 319.331 61.2165 318.948 61.9417 318.132L62.8234 316.513C62.8234 316.513 59.6549 317.395 55.9013 316.492C52.1478 315.59 51.2711 311.05 51.2711 311.05L50.9323 310.374Z" fill="#393939" stroke="black" stroke-miterlimit="10"/>
<path d="M63.4878 315.337C64.2372 313.298 61.984 310.593 58.4553 309.297C54.9266 308.001 51.4586 308.604 50.7093 310.644C49.96 312.683 52.2131 315.388 55.7418 316.684C59.2705 317.98 62.7385 317.377 63.4878 315.337Z" fill="white" stroke="black" stroke-miterlimit="10"/>
<path d="M52.5098 310.017L58.0682 295.303C58.0682 295.303 59.5227 298.385 62.7818 299.085C66.0409 299.785 68.4843 298.562 68.4843 298.562L62.1432 313.452C62.1432 313.452 59.9924 316.109 56.0946 314.304C52.1968 312.5 52.4894 310.135 52.4894 310.135L52.5098 310.017Z" fill="white" stroke="black" stroke-miterlimit="10"/>
<path d="M47.8337 282.275L42.2098 286.424C42.2098 286.424 40.5411 288.752 41.6659 291.504C42.7907 294.257 44.1091 294.335 44.1091 294.335L49.0738 289.37L47.8337 282.275Z" fill="#393939" stroke="black" stroke-miterlimit="10"/>
<path d="M68.4854 285.336H72.111C72.111 285.336 73.8579 286.539 73.5448 291.735C73.2317 296.93 70.9327 295.921 70.9327 295.921L68.4854 285.336Z" fill="#B50039" stroke="#211815" stroke-miterlimit="10"/>
<path d="M60.4755 284.471L68.4853 284.834L70.9863 296.168L56.417 295.303L60.4755 284.471Z" fill="white" stroke="black" stroke-miterlimit="10"/>
<path d="M58.5149 288.843L53.7619 285.01L49.009 281.178L51.3087 278.326C55.5952 278.694 59.5484 281.882 60.8135 285.995L58.5138 288.847L58.5149 288.843Z" fill="#B50039" stroke="#211815" stroke-miterlimit="10"/>
<path d="M49.3507 280.126L38.4017 294.1C38.2842 294.252 38.3694 294.475 38.5568 294.509C39.7665 294.722 43.2759 295.474 45.3747 297.321C47.3052 299.015 48.1694 300.996 48.4794 301.876C48.5471 302.069 48.8003 302.112 48.9249 301.949L59.3403 288.565C59.3985 288.491 59.3764 288.383 59.2941 288.34L57.2057 287.187C54.9122 285.924 52.8859 284.221 51.2452 282.178L49.5917 280.118C49.5311 280.042 49.4111 280.044 49.3518 280.122L49.3507 280.126Z" fill="white" stroke="black" stroke-miterlimit="10"/>
<path d="M42.7969 288.488L41.5834 290.039C41.5834 290.039 44.9603 290.65 47.7029 292.545C50.4456 294.44 52.3329 297.569 52.3329 297.569L53.4586 296.122C53.4586 296.122 51.4628 293.143 48.4092 291.199C45.3556 289.254 42.7979 288.484 42.7979 288.484L42.7969 288.488Z" fill="#393939" stroke="black" stroke-miterlimit="10"/>
<path d="M48.77 302.078C48.2062 302.797 45.3317 301.967 42.4799 299.732C39.6281 297.496 37.8791 294.694 38.4469 293.976C39.0147 293.258 41.8756 294.059 44.7264 296.298C47.5772 298.538 49.3377 301.36 48.77 302.078Z" fill="#393939" stroke="black" stroke-miterlimit="10"/>
<path d="M47.3275 301.939C46.7637 302.658 44.2374 302.105 41.8414 300.222C39.4443 298.342 38.086 295.85 38.6509 295.127C39.2157 294.404 41.6166 295.346 44.0126 297.229C46.4086 299.112 47.8924 301.216 47.3275 301.939Z" fill="#393939" stroke="black" stroke-miterlimit="10"/>
<path d="M30.7882 324.494C30.162 324.415 29.7376 321.717 30.1867 318.322C30.6358 314.927 31.7935 312.113 32.4198 312.195C33.046 312.278 33.1902 315.092 32.7412 318.491C32.2921 321.89 31.4186 324.576 30.7882 324.498V324.494Z" fill="#B50039" stroke="#211815" stroke-miterlimit="10"/>
<path d="M41.8839 363.342C39.5848 363.63 36.2968 359.98 35.6787 354.747C35.0607 349.519 37.3433 344.69 39.6424 344.402C41.9416 344.113 44.3066 348.122 44.9246 353.351C45.5427 358.579 44.183 363.053 41.8839 363.338V363.342Z" fill="#B50039" stroke="#211815" stroke-miterlimit="10"/>
<path d="M39.9394 361.545C38.2996 361.698 35.9883 358.439 35.5845 353.927C35.1848 349.416 36.8494 345.366 38.4891 345.213C40.1289 345.061 41.7811 348.588 42.1807 353.099C42.5804 357.611 41.5792 361.389 39.9394 361.545Z" fill="#B50039" stroke="#211815" stroke-miterlimit="10"/>
<path d="M47.7604 312.909C47.7604 312.909 49.6428 318.614 47.5498 322.961L48.312 324.72C48.312 324.72 51.3444 319.644 48.7693 312.406L47.5498 312.373L47.6652 312.587L47.7604 312.909Z" fill="#393939" stroke="black" stroke-miterlimit="10"/>
<path d="M41.2488 348.428C41.8101 348.282 42.2072 347.941 42.1358 347.668C42.0643 347.395 41.5513 347.293 40.99 347.44C40.4287 347.587 40.0316 347.927 40.103 348.2C40.1745 348.473 40.6875 348.575 41.2488 348.428Z" fill="#B50039" stroke="#211815" stroke-miterlimit="10"/>
<path d="M42.2764 354.75C42.8566 354.748 43.3261 354.517 43.3249 354.235C43.3238 353.953 42.8525 353.726 42.2723 353.728C41.6921 353.731 41.2226 353.961 41.2237 354.243C41.2249 354.525 41.6962 354.752 42.2764 354.75Z" fill="#B50039" stroke="#211815" stroke-miterlimit="10"/>
<path d="M42.0228 361.205C42.1653 360.961 41.8748 360.526 41.374 360.233C40.8732 359.94 40.3517 359.9 40.2092 360.144C40.0667 360.387 40.3572 360.822 40.858 361.115C41.3588 361.408 41.8803 361.448 42.0228 361.205Z" fill="#B50039" stroke="#211815" stroke-miterlimit="10"/>
<path d="M42.916 410V400.102H46.6348C48.9043 400.102 50.1143 401.482 50.1211 403.383C50.1143 405.276 48.8906 406.65 46.6074 406.65H44.6934V410H42.916ZM44.6934 405.188H46.3613C47.7012 405.181 48.3027 404.429 48.3027 403.383C48.3027 402.323 47.7012 401.592 46.3613 401.592H44.6934V405.188ZM53.2246 400.102V410H51.4746V400.102H53.2246ZM54.5508 407.908C54.5508 406.24 55.9385 405.755 57.3125 405.666C57.832 405.625 58.8916 405.577 59.2197 405.563L59.2129 404.969C59.2129 404.23 58.7412 403.807 57.873 403.807C57.0938 403.807 56.6152 404.162 56.4785 404.695H54.7969C54.9199 403.431 56.0547 402.48 57.9141 402.48C59.3223 402.48 60.9492 403.062 60.9492 405.037V410H59.2812V408.975H59.2266C58.8984 409.604 58.208 410.15 57.0391 410.15C55.624 410.15 54.5508 409.378 54.5508 407.908ZM56.2324 407.895C56.2324 408.537 56.7588 408.865 57.4902 408.865C58.5498 408.865 59.2266 408.168 59.2266 407.334L59.2197 406.726C58.9053 406.739 57.9346 406.801 57.5859 406.828C56.7588 406.896 56.2324 407.245 56.2324 407.895ZM65.8301 410.15C63.6152 410.15 62.2754 408.564 62.2754 406.322C62.2754 404.046 63.6562 402.48 65.8301 402.48C67.6279 402.48 68.8926 403.533 69.0156 405.133H67.3477C67.2109 404.422 66.6914 403.882 65.8438 403.875C64.7637 403.882 64.0391 404.784 64.0391 406.281C64.0391 407.812 64.75 408.722 65.8438 408.729C66.6162 408.722 67.1904 408.271 67.3477 407.471H69.0156C68.8857 409.036 67.6963 410.15 65.8301 410.15ZM73.623 410.15C71.3877 410.15 70.0137 408.66 70.0137 406.336C70.0137 404.039 71.4082 402.48 73.5273 402.48C75.3457 402.48 76.918 403.622 76.918 406.227V406.773H71.7363C71.7637 408.038 72.5088 408.79 73.6367 408.783C74.4023 408.79 74.915 408.462 75.1406 408.018H76.8496C76.5352 409.303 75.3457 410.15 73.623 410.15ZM71.7432 405.584H75.25C75.2432 404.572 74.5596 403.834 73.5547 403.834C72.5088 403.834 71.8047 404.641 71.7432 405.584Z" fill="black"/>
<path d="M317 336C318.667 336 320 334.667 320 333C320 331.333 318.667 330 317 330C315.333 330 314 331.333 314 333C314 334.667 315.333 336 317 336Z" fill="white"/>
<path d="M314 333C314 334.667 315.333 336 317 336C318.667 336 320 334.667 320 333C320 331.333 318.667 330 317 330C315.333 330 314 331.333 314 333ZM314 333L131 333" stroke="#B50039" stroke-width="2"/>
<path d="M394 159C394 157.333 392.667 156 391 156C389.333 156 388 157.333 388 159C388 160.667 389.333 162 391 162C392.667 162 394 160.667 394 159Z" fill="white"/>
<path d="M391 162C392.667 162 394 160.667 394 159C394 157.333 392.667 156 391 156C389.333 156 388 157.333 388 159C388 160.667 389.333 162 391 162ZM391 162L391 260" stroke="#B50039" stroke-width="2"/>
<path d="M59 257C59 258.667 60.3333 260 62 260C63.6667 260 65 258.667 65 257C65 255.333 63.6667 254 62 254C60.3333 254 59 255.333 59 257Z" fill="white"/>
<path d="M62 254C60.3333 254 59 255.333 59 257C59 258.667 60.3333 260 62 260C63.6667 260 65 258.667 65 257C65 255.333 63.6667 254 62 254ZM62 254L62 156" stroke="#B50039" stroke-width="2" stroke-dasharray="4 4"/>
</svg>
