<svg xmlns="http://www.w3.org/2000/svg" width="24" height="25" viewBox="0 0 24 25" fill="none">
    <path fill-rule="evenodd" clip-rule="evenodd" d="M15.5787 13.2487H12.7507V16.0727C12.7507 16.4867 12.4147 16.8227 12.0007 16.8227C11.5867 16.8227 11.2507 16.4867 11.2507 16.0727V13.2487H8.42267C8.00867 13.2487 7.67267 12.9127 7.67267 12.4987C7.67267 12.0847 8.00867 11.7487 8.42267 11.7487H11.2507V8.92472C11.2507 8.51072 11.5867 8.17472 12.0007 8.17472C12.4147 8.17472 12.7507 8.51072 12.7507 8.92472V11.7487H15.5787C15.9927 11.7487 16.3287 12.0847 16.3287 12.4987C16.3287 12.9127 15.9927 13.2487 15.5787 13.2487ZM12.0007 2.26172C4.44167 2.26172 1.76367 4.93972 1.76367 12.4987C1.76367 20.0577 4.44167 22.7357 12.0007 22.7357C19.5587 22.7357 22.2377 20.0577 22.2377 12.4987C22.2377 4.93972 19.5587 2.26172 12.0007 2.26172Z" fill="#383F45"/>
</svg>